# xmcd CD database file
# Copyright (C) 1997 Ti Kan
#
# Track frame offsets:
#  150
#  11495
#  22747
#  35457
#  45532
#  57517
#  71347
#  82562
#  93707
#  104672
#  117557
#  130305
#  143072
#  155177
#  167580
#  179247
#  192010
#  204017
#  215622
#  229115
#
# Disc length: 3273 seconds
#
# Revision: 1
# Processed by: cddbd v1.4b41PL1 Copyright (c) Steve Scherf et al.
# Submitted via: CDWizzard Release:4.32
#
DISCID=130cc714
DTITLE=The Marvelettes - The Best Of The Marvelettes/Motown Milestones
DYEAR=1900
DGENRE=
TTITLE0=Please Mr. Postman
TTITLE1=Twistin' Postman
TTITLE2=Playboy
TTITLE3=Beechwood 4-5789
TTITLE4=Strange I Know
TTITLE5=You're My Remedy
TTITLE6=Too Many Fish In The Sea
TTITLE7=I'll Keep Holding On
TTITLE8=Danger Heartbreak Dead Ahead
TTITLE9=Don't Mess With Bill
TTITLE10=You're The One
TTITLE11=The Hunter Gets Captured By The Game
TTITLE12=When You're Young And In Love
TTITLE13=The Day You Take One (You Have To Take The Other)
TTITLE14=My Baby Must Be A Magician
TTITLE15=Here I Am Baby
TTITLE16=Destination Anywhere
TTITLE17=I'm Gonna Hold On As Long As I Can
TTITLE18=That's How Heartaches Are Made
TTITLE19=Marionette
EXTD=
EXTT0=
EXTT1=
EXTT2=
EXTT3=
EXTT4=
EXTT5=
EXTT6=
EXTT7=
EXTT8=
EXTT9=
EXTT10=
EXTT11=
EXTT12=
EXTT13=
EXTT14=
EXTT15=
EXTT16=
EXTT17=
EXTT18=
EXTT19=
PLAYORDER=
